<?xml version="1.0" encoding="UTF-8"?><svg xmlns="http://www.w3.org/2000/svg" viewBox="0 0 154.09 154.23"><defs><style>.e,.f,.g,.h,.i,.j{stroke:currentColor;fill:currentColor}.e,.f,.g,.i,.j{stroke-width:5px;}.e,.f,.h,.j{stroke-miterlimit:10;}.f,.g,.i{stroke-linecap:round;}.f,.g,.j{fill:none;}.g,.i{stroke-linejoin:round;}</style></defs><g id="a"><path class="g" d="M83.54,45.56L14.11,115c-1.46,1.46-2.55,3.26-3.15,5.23l-8.33,27.44c-.5,1.67.45,3.42,2.12,3.92.59.18,1.22.18,1.81,0l27.44-8.32c1.97-.6,3.77-1.68,5.23-3.13l69.18-69.19"/></g><g id="b"><g id="c"><path class="j" d="M108.42,70.95c2.68-1.97,3.95-5,4.36-6.86.24-1.1,1.07-1.98,2.17-2.21,1.31-.27,2.99-.86,4.58-2.14,2.58-2.08,3.51-4.86,3.85-6.74.19-1.08.95-1.98,2.01-2.26,2.7-.72,4.8-2.8,5.38-5.4.51-2.31-.24-4.76-1.92-6.54-.3-.32-.42-.76-.35-1.2.23-1.37.39-3.79-.8-6.3-.59-1.25-1.36-2.17-1.98-2.8"/><path class="j" d="M83.54,45.56c1.97-2.68,4.72-3.73,6.58-4.14,1.1-.24,1.98-1.07,2.21-2.17.27-1.31.86-2.99,2.14-4.58,2.08-2.58,4.86-3.51,6.74-3.85,1.08-.19,1.98-.95,2.26-2.01.72-2.7,2.8-4.8,5.4-5.38,2.31-.51,4.76.24,6.54,1.92.32.3.76.42,1.2.35,1.37-.23,3.79-.39,6.3.8,1.25.59,2.17,1.36,2.8,1.98"/><path class="j" d="M119.09,25.69c.77-1.64,2.97-4.54,4.25-7.65.29-.7.72-1.79.3-2.88-.29-.76-.95-1.42-1.65-1.7-2.76-1.14-7.4,3.01-9.87,6.58-.85,1.24-1.43,2.37-1.78,3.17"/><path class="j" d="M115.48,25.78c.98-.54,2.97-1.96,4.06-2.99,3.45-3.26,4.03-4.51,4.23-7.14"/><path class="j" d="M128.47,35.07c1.64-.77,4.54-2.97,7.65-4.25.7-.29,1.79-.72,2.88-.3.76.29,1.42.95,1.7,1.65,1.14,2.76-3.01,7.4-6.58,9.87-1.24.85-2.37,1.43-3.17,1.78"/><path class="j" d="M128.39,38.68c.54-.98,1.96-2.97,2.99-4.06,3.26-3.45,4.51-4.03,7.14-4.23"/><path class="f" d="M110.87,43.83c-.55.58-1.91,1.86-4.09,2.44-1.77.46-3.26.25-4.03.08"/><path class="f" d="M108.32,51.81c-.15-.77-.3-2.04.03-3.54.52-2.37,1.91-3.86,2.53-4.44"/><path class="e" d="M110.68,44.07c.82.77,2.11,1.13,3.06.72.22-.09.54-.24.63-.53.12-.38-.22-.79-1.7-2.23-1.46-1.43-1.88-1.77-2.3-1.64-.32.09-.48.4-.56.55-.49.92.01,2.32.86,3.12h0Z"/><circle class="h" cx="110.69" cy="33.32" r="2"/><circle class="h" cx="121.01" cy="43.82" r="2"/></g></g><g id="d"><path class="g" d="M83.54,45.56l-14.38.17c-15.78,15.79-25.67,25.67-41.45,41.46"/><circle class="i" cx="29.38" cy="88.98" r="2.46"/></g></svg>